#!OML:ASF F:\VICON\USERDATA\INSTALL\rory3\rory3.ASF
:FULLY-SPECIFIED
:DEGREES
3051
root 1.45599 17.5729 -4.64269 -0.316095 26.9864 2.04996
lowerback 4.17184 -2.34849 -5.44493
upperback 1.44184 -3.32986 1.2209
thorax -0.465021 -1.68416 4.45241
lowerneck -21.2668 -9.21995 -12.7287
upperneck 22.2032 -11.2549 9.3196
head 12.1282 -5.0046 3.62568
rclavicle -3.80673e-014 -2.38542e-015
rhumerus 15.0105 -6.13327 -48.1946
rradius 81.0349
rwrist 48.7154
rhand -65.1275 -28.1985
rfingers 7.12502
rthumb -37.0183 -54.2583
lclavicle -3.80673e-014 -2.38542e-015
lhumerus -25.4462 2.9566 80.4846
lradius 53.8874
lwrist -30.7665
lhand -38.9341 30.4867
lfingers 7.12502
lthumb -11.9401 -1019.87
rfemur -22.2534 7.78678 4.5599
rtibia 35.2903
rfoot -8.56366 -8.4852
rtoes 3.62241
lfemur -0.712891 2.80805 -20.5361
ltibia 25.1048
lfoot -18.6157 4.19875
ltoes -14.1424
3052
root 1.42057 17.5715 -4.6186 -0.227037 26.9763 2.01226
lowerback 4.17676 -2.23987 -5.27562
upperback 1.42533 -3.17898 1.21254
thorax -0.512599 -1.60625 4.34463
lowerneck -21.2717 -9.29103 -12.7288
upperneck 22.4702 -11.3598 9.25211
head 12.2419 -5.05747 3.58256
rclavicle 9.54415e-014 7.95139e-016
rhumerus 16.2727 -6.68977 -47.6706
rradius 80.1838
rwrist 48.9538
rhand -65.2455 -29.4953
rfingers 7.12502
rthumb -37.1299 -55.5261
lclavicle 9.54415e-014 7.95139e-016
lhumerus -26.3322 4.64949 80.1687
lradius 52.2722
lwrist -29.0667
lhand -38.1451 28.6375
lfingers 7.12502
lthumb -11.1792 -1021.68
rfemur -22.0185 8.07899 4.48106
rtibia 35.2953
rfoot -8.30799 -7.99979
rtoes 3.60099
lfemur -0.816128 2.64174 -20.369
ltibia 25.1367
lfoot -18.6065 4.28917
ltoes -14.3929
3053
root 1.38398 17.5712 -4.59265 -0.171212 26.987 1.99931
lowerback 4.1269 -2.16887 -5.15581
upperback 1.47764 -3.0759 1.18601
thorax -0.450561 -1.55708 4.24256
lowerneck -21.1103 -9.25298 -12.6207
upperneck 22.47 -11.3563 9.23123
head 12.2012 -5.05424 3.56279
rclavicle 9.67336e-014 7.95139e-016
rhumerus 17.6668 -7.27948 -47.244
rradius 79.2082
rwrist 49.1404
rhand -65.2784 -29.4822
rfingers 7.12502
rthumb -37.161 -55.5049
lclavicle 9.67336e-014 7.95139e-016
lhumerus -27.1136 6.55264 79.683
lradius 50.7786
lwrist -27.2788
lhand -36.9755 28.1893
lfingers 7.12502
lthumb -10.051 -1022.07
rfemur -21.7241 8.39949 4.388
rtibia 35.2799
rfoot -8.0514 -7.24483
rtoes 5.11381
lfemur -0.877462 2.55819 -20.1931
ltibia 25.1984
lfoot -18.6452 4.28388
ltoes -14.5211
3054
root 1.34806 17.5688 -4.56541 -0.117031 27.0731 2.00386
lowerback 4.10766 -2.10703 -5.04528
upperback 1.55746 -2.98644 1.15521
thorax -0.374996 -1.51551 4.14254
lowerneck -20.1152 -9.48695 -12.8513
upperneck 22.5314 -11.7834 9.34948
head 12.113 -5.28073 3.59068
rclavicle -5.86166e-014 1.8487e-014
rhumerus 19.0508 -7.9548 -46.7088
rradius 78.1132
rwrist 49.3063
rhand -65.2588 -28.1763
rfingers 7.12502
rthumb -37.1424 -54.2039
lclavicle -5.86166e-014 1.8487e-014
lhumerus -27.8777 8.24513 79.1743
lradius 49.4641
lwrist -25.0934
lhand -35.47 29.7229
lfingers 7.12502
lthumb -8.59838 -1020.47
rfemur -21.3699 8.56401 4.30786
rtibia 35.2514
rfoot -7.94662 -6.4119
rtoes 5.53769
lfemur -0.907784 2.52924 -20.016
ltibia 25.2224
lfoot -18.6526 4.20405
ltoes -14.4953
3055
root 1.31179 17.5669 -4.53415 -0.0114955 27.1061 1.9567
lowerback 4.13688 -1.99752 -4.85292
upperback 1.5101 -2.83569 1.12765
thorax -0.467856 -1.43564 4.00358
lowerneck -21.9332 -9.32873 -12.1304
upperneck 23.6048 -11.4391 8.59018
head 12.7382 -5.09385 3.21166
rclavicle -3.96327e-014 -5.96354e-016
rhumerus 20.3246 -8.56885 -46.0592
rradius 76.767
rwrist 49.6697
rhand -65.5944 -29.3079
rfingers 7.12502
rthumb -37.4597 -55.2521
lclavicle -3.96327e-014 -5.96354e-016
lhumerus -28.6531 9.98187 78.5617
lradius 47.9687
lwrist -22.8108
lhand -32.7755 30.0698
lfingers 7.12502
lthumb -5.9975 -1020.04
rfemur -21.1105 8.7455 4.305
rtibia 35.2141
rfoot -8.05001 -5.50588
rtoes 3.11953
lfemur -1.01946 2.60246 -19.7818
ltibia 25.2356
lfoot -18.6693 4.13019
ltoes -15.0068
3056
root 1.27218 17.5672 -4.5013 0.110933 27.2101 1.96518
lowerback 4.18951 -1.90341 -4.71299
upperback 1.41887 -2.70975 1.06724
thorax -0.614417 -1.36622 3.86266
lowerneck -22.0948 -9.40608 -11.8478
upperneck 24.2761 -11.5309 8.07436
head 12.9924 -5.16463 2.9497
rclavicle -6.55989e-015 1.39149e-015
rhumerus 21.5922 -9.11354 -45.4376
rradius 75.2711
rwrist 49.914
rhand -65.9329 -30.5701
rfingers 7.12502
rthumb -37.7796 -56.4289
lclavicle -6.55989e-015 1.39149e-015
lhumerus -29.2854 11.8381 77.7477
lradius 46.1103
lwrist -20.7523
lhand -29.8674 29.128
lfingers 7.12502
lthumb -3.18938 -1020.92
rfemur -20.8186 8.98367 4.26544
rtibia 35.152
rfoot -8.18024 -4.51207
rtoes 1.76935
lfemur -1.16385 2.53354 -19.5953
ltibia 25.2913
lfoot -18.6641 4.046
ltoes -15.3154
3057
root 1.22771 17.5643 -4.4693 0.2129 27.414 1.96881
lowerback 4.25029 -1.83728 -4.57366
upperback 1.36599 -2.62071 0.982384
thorax -0.722546 -1.31721 3.69714
lowerneck -22.1221 -9.43117 -11.69
upperneck 24.7089 -11.5844 7.84188
head 13.1512 -5.19908 2.82615
rclavicle 2.42766e-014 8.15017e-015
rhumerus 22.9197 -9.74441 -44.8613
rradius 73.7242
rwrist 50.0346
rhand -65.757 -30.2827
rfingers 7.12502
rthumb -37.6134 -56.1861
lclavicle 2.42766e-014 8.15017e-015
lhumerus -30.0178 13.2648 76.831
lradius 44.535
lwrist -18.4599
lhand -29.079 30.4116
lfingers 7.12502
lthumb -2.42801 -1019.62
rfemur -20.4705 9.12938 4.28586
rtibia 35.0596
rfoot -8.20486 -3.51198
rtoes 2.57639
lfemur -1.3101 2.35562 -19.393
ltibia 25.3502
lfoot -18.6625 4.01005
ltoes -15.5722
3058
root 1.18345 17.5546 -4.43754 0.329057 27.6146 1.98264
lowerback 4.2936 -1.77773 -4.41721
upperback 1.33036 -2.5382 0.916471
thorax -0.801659 -1.27284 3.54051
lowerneck -21.9939 -9.47905 -11.7751
upperneck 24.9817 -11.6698 7.87131
head 13.2563 -5.24171 2.84002
rclavicle 3.12837e-014 -9.14409e-015
rhumerus 24.3583 -10.4377 -44.2848
rradius 72.0679
rwrist 50.0602
rhand -65.5579 -30.5321
rfingers 7.12502
rthumb -37.4252 -56.4855
lclavicle 3.12837e-014 -9.14409e-015
lhumerus -31.021 14.5308 75.8829
lradius 43.3699
lwrist -15.7398
lhand -25.8834 29.6508
lfingers 7.12502
lthumb 0.65839 -1020.37
rfemur -20.1213 9.02911 4.35044
rtibia 34.9201
rfoot -8.19492 -2.48272
rtoes 2.6921
lfemur -1.46231 2.24653 -19.1953
ltibia 25.3947
lfoot -18.6461 3.99107
ltoes -15.9182
3059
root 1.13793 17.5487 -4.40366 0.466877 27.8978 2.0697
lowerback 4.40054 -1.68242 -4.32482
upperback 1.25811 -2.41461 0.822261
thorax -0.955546 -1.20563 3.39198
lowerneck -21.691 -9.56333 -11.7952
upperneck 25.1979 -11.8266 7.83177
head 13.3017 -5.32385 2.80702
rclavicle -2.76559e-014 -4.37326e-015
rhumerus 25.6178 -11.2295 -43.6496
rradius 70.2613
rwrist 50.0704
rhand -65.596 -31.9358
rfingers 7.12502
rthumb -37.4612 -57.8796
lclavicle -2.76559e-014 -4.37326e-015
lhumerus -31.8834 15.9119 74.8564
lradius 41.8465
lwrist -13.0079
lhand -22.9343 34.208
lfingers 7.12502
lthumb 3.50652 -1015.84
rfemur -19.7443 9.01016 4.33229
rtibia 34.7167
rfoot -8.44798 -1.72464
rtoes 1.91965
lfemur -1.61937 2.11515 -19.0554
ltibia 25.4634
lfoot -18.6635 3.90146
ltoes -16.6259
3060
root 1.08901 17.5485 -4.36719 0.632021 28.2178 2.08001
lowerback 4.39108 -1.58989 -4.17839
upperback 1.21167 -2.28679 0.719283
thorax -1.01988 -1.13924 3.19856
lowerneck -21.5005 -9.66331 -12.0884
upperneck 25.5049 -12.0295 8.18841
head 13.4663 -5.39577 2.96111
rclavicle -3.14701e-014 1.09332e-014
rhumerus 26.8107 -12.0528 -43.0436
rradius 68.3753
rwrist 50.1373
rhand -65.6019 -32.9097
rfingers 7.12502
rthumb -37.4668 -58.852
lclavicle -3.14701e-014 1.09332e-014
lhumerus -32.4343 17.3697 73.6881
lradius 39.9427
lwrist -10.1052
lhand -21.1742 34.7792
lfingers 7.12502
lthumb 5.20618 -1015.3
rfemur -19.4457 9.01151 4.38514
rtibia 34.4166
rfoot -8.80749 -1.1667
rtoes 1.2404
lfemur -1.84687 1.87432 -18.8397
ltibia 25.5566
lfoot -18.6609 3.80074
ltoes -17.0365
